<svg width="533" height="45" viewBox="0 0 533 45" fill="none" xmlns="http://www.w3.org/2000/svg">
<g clip-path="url(#clip0_33_322)">
<path d="M524.202 25.8315H488.087V37.3767H524.202V25.8315ZM532.98 31.2339C533.021 32.7946 532.938 34.4154 532.63 35.956C531.808 40.0579 529.033 42.4389 524.984 43.3393C522.599 43.8596 520.133 44.2197 517.707 44.2397C505.394 44.3398 493.061 44.2797 480.749 44.2797C480.481 44.2797 480.235 44.2597 479.926 44.2397V1.02051C480.276 1.02051 480.625 1.02051 480.995 1.02051C492.568 1.02051 527.779 1.02051 527.779 1.02051L527.738 7.96359H488.107V18.8684H523.154C533.021 18.8684 532.918 27.1921 533 31.274L532.98 31.2339Z" fill="black"/>
<path d="M249.542 1.04053H297.21V7.84355H257.682V18.8685H287.076V25.7115H257.723V37.4167H297.744V44.1997H249.563V1.04053H249.542Z" fill="black"/>
<path d="M318.012 29.2729V44.2195H309.893V1.0203C310.263 1.0203 310.674 1.0203 311.064 1.0203C321.691 1.0203 332.298 0.960274 342.925 1.06032C345.577 1.08033 348.29 1.36045 350.901 1.90069C355.69 2.88113 358.506 5.86245 359.349 10.5645C359.945 13.866 359.945 17.1675 359.205 20.4289C358.095 25.2911 354.827 28.0523 349.236 28.8127C347.139 29.0928 345.022 29.2529 342.925 29.2529C335.073 29.3129 327.2 29.2729 319.348 29.2729C318.937 29.2729 318.546 29.2729 318.053 29.2729H318.012ZM350.633 22.3898V7.92337H318.074V22.3898H350.633Z" fill="black"/>
<path d="M418.753 44.2998C418.98 43.8396 419.103 43.4995 419.288 43.1993C426.688 29.4332 434.108 15.6671 441.508 1.90099C441.858 1.26071 442.207 1.00059 442.968 1.0206C446.441 1.06062 449.915 1.06062 453.389 1.0206C454.088 1.0206 454.458 1.22069 454.787 1.82095C462.269 15.6471 469.751 29.4332 477.254 43.2394C477.398 43.5195 477.521 43.8196 477.747 44.2998C475.651 44.2998 473.677 44.1198 471.766 44.3399C469.422 44.62 468.168 43.8196 467.285 41.6787C466.298 39.2776 464.859 37.0366 463.667 34.6956C463.359 34.0753 462.968 33.8952 462.269 33.8952C452.855 33.9152 443.44 33.9152 434.026 33.8952C433.286 33.8952 432.895 34.0953 432.567 34.7556C431.066 37.6769 429.483 40.5582 427.983 43.4995C427.674 44.1198 427.304 44.3198 426.606 44.3198C424.057 44.2798 421.487 44.3198 418.753 44.3198V44.2998ZM459.535 27.0322C455.774 19.889 452.053 12.8659 448.23 5.62264C444.345 12.8859 440.604 19.929 436.801 27.0322H459.535Z" fill="black"/>
<path d="M24.0292 19.7287C32.7035 27.8723 41.2751 35.9559 49.8673 44.0195C49.8261 44.1195 49.785 44.1996 49.7234 44.2996H48.0789C45.9206 44.2996 43.7623 44.1396 41.6246 44.3396C39.3018 44.5798 37.7191 43.7194 36.1157 42.1387C30.3602 36.4561 24.4403 30.9137 18.6026 25.3112C18.3148 25.0311 18.1298 24.6509 17.8626 24.2907C14.5737 26.7518 11.511 29.0328 8.4688 31.3539C8.18103 31.574 8.05769 32.1142 8.05769 32.4944C8.01658 35.9959 8.05769 39.4775 8.05769 42.979C8.05769 43.3792 8.05769 43.7794 8.05769 44.2196H0V1.08042H8.07825V22.63C8.55102 22.3099 8.8388 22.1298 9.12657 21.9097C18.1298 15.1667 27.1331 8.40367 36.1568 1.66068C36.6502 1.30052 37.3696 1.06041 37.9863 1.0404C41.1518 0.980373 44.3379 1.02039 47.5034 1.02039C47.8323 1.02039 48.1612 1.0404 48.6339 1.30052C40.4735 7.42324 32.2924 13.5259 24.0292 19.7287Z" fill="black"/>
<path d="M376.615 35.996C376.101 39.2374 375.279 44.2797 369.277 44.2797C367.262 44.2596 365.248 44.2797 363.172 44.2797V36.5962C364.426 36.5962 365.68 36.5962 366.934 36.5962C368.701 36.5962 369.297 36.016 369.482 34.2752C370.017 29.0729 370.572 23.8706 371.127 18.6883C371.456 15.5469 371.517 15.5469 371.805 12.3855C372.751 3.78165 378.917 1.78076 393.368 1.78076C402.063 1.78076 405.536 2.34101 407.016 2.9813C411.292 4.86213 413.039 8.46373 413.656 12.7056C413.944 14.6665 414.129 16.6674 414.149 18.6283C414.211 26.8719 414.17 35.1156 414.17 43.3592C414.17 43.6394 414.149 43.9395 414.129 44.2997H406.071V8.94395H379.328C379.328 8.94395 377.129 32.7545 376.615 35.996Z" fill="black"/>
<path d="M240.333 1.08057V7.80355H217.578V44.2397H209.418V7.9036H186.684V1.08057H240.333Z" fill="black"/>
<path d="M157.495 1.08057H126.58V44.2197H134.74V7.80355H170.691V44.2397H178.852V1.08057H157.495Z" fill="black"/>
<path d="M68.7782 8.66385C82.2625 6.90307 95.7468 6.90307 109.313 8.66385V19.5087H118.337C118.214 17.4678 118.049 15.4269 117.7 13.3859C116.59 6.56292 112.438 2.72121 105.613 1.3406C100.146 0.240107 94.5957 0.0600267 89.0252 0C83.4136 0.0400178 77.8226 0.200089 72.3343 1.3606C66.1266 2.66118 61.8511 5.96265 60.5766 12.2655C60.0833 14.6665 59.775 17.0876 59.6311 19.5087H68.7577V8.66385H68.7782Z" fill="black"/>
<path d="M109.313 36.3162C95.7673 38.077 82.3035 38.077 68.7781 36.3162V25.8716H59.6721C59.816 28.1526 60.1243 30.4136 60.5766 32.6946C61.666 38.057 64.9548 41.5185 70.3403 43.0992C71.3681 43.3994 72.3959 43.6595 73.4442 43.8396C80.5358 45.0801 87.689 45.1802 94.8423 44.8C98.4806 44.6199 102.139 44.2197 105.716 43.5795C112.253 42.3989 116.425 38.6973 117.618 32.1744C118.008 30.0734 118.214 27.9725 118.337 25.8716H109.334V36.3162H109.313Z" fill="black"/>
</g>
<defs>
<clipPath id="clip0_33_322">
<rect width="533" height="45" fill="white"/>
</clipPath>
</defs>
</svg>
