<svg width="208" height="18" viewBox="0 0 208 18" fill="none" xmlns="http://www.w3.org/2000/svg">
<g clip-path="url(#clip0_26_701)">
<path d="M204.567 10.3326H190.473V14.9507H204.567V10.3326ZM207.992 12.4936C208.008 13.1179 207.976 13.7661 207.856 14.3824C207.535 16.0231 206.452 16.9756 204.872 17.3357C203.941 17.5438 202.979 17.6879 202.032 17.6959C197.227 17.7359 192.414 17.7119 187.609 17.7119C187.505 17.7119 187.409 17.7039 187.288 17.6959V0.408203C187.425 0.408203 187.561 0.408203 187.705 0.408203C192.222 0.408203 205.963 0.408203 205.963 0.408203L205.947 3.18544H190.481V7.54738H204.158C208.008 7.54738 207.968 10.8769 208 12.5096L207.992 12.4936Z" fill="white"/>
<path d="M97.3821 0.416016H115.984V3.13722H100.559V7.54718H112.03V10.2844H100.575V14.9665H116.193V17.6797H97.3901V0.416016H97.3821Z" fill="white"/>
<path d="M124.102 11.709V17.6877H120.934V0.408023C121.078 0.408023 121.238 0.408023 121.391 0.408023C125.538 0.408023 129.677 0.384012 133.824 0.42403C134.859 0.432033 135.918 0.544083 136.937 0.760179C138.806 1.15235 139.905 2.34488 140.234 4.22572C140.466 5.54631 140.466 6.86689 140.177 8.17147C139.744 10.1163 138.469 11.2208 136.287 11.525C135.469 11.637 134.643 11.701 133.824 11.701C130.76 11.7251 127.688 11.709 124.624 11.709C124.463 11.709 124.311 11.709 124.118 11.709H124.102ZM136.832 8.95582V3.16925H124.126V8.95582H136.832Z" fill="white"/>
<path d="M163.416 17.7198C163.504 17.5358 163.552 17.3997 163.625 17.2796C166.512 11.7732 169.408 6.26675 172.296 0.760298C172.432 0.504184 172.569 0.400138 172.865 0.408142C174.221 0.424149 175.577 0.424149 176.932 0.408142C177.205 0.408142 177.35 0.488177 177.478 0.728284C180.398 6.25874 183.318 11.7732 186.245 17.2956C186.302 17.4077 186.35 17.5278 186.438 17.7198C185.62 17.7198 184.85 17.6478 184.104 17.7358C183.189 17.8479 182.7 17.5278 182.355 16.6714C181.97 15.7109 181.408 14.8145 180.943 13.8781C180.823 13.63 180.67 13.558 180.398 13.558C176.724 13.566 173.05 13.566 169.376 13.558C169.087 13.558 168.935 13.638 168.807 13.9021C168.221 15.0707 167.603 16.2232 167.018 17.3997C166.897 17.6478 166.753 17.7278 166.48 17.7278C165.486 17.7118 164.483 17.7278 163.416 17.7278V17.7198ZM179.331 10.8128C177.863 7.9555 176.411 5.14625 174.919 2.24896C173.403 5.15425 171.943 7.9715 170.459 10.8128H179.331Z" fill="white"/>
<path d="M9.37725 7.89138C12.7624 11.1488 16.1074 14.3823 19.4604 17.6077C19.4444 17.6477 19.4283 17.6797 19.4042 17.7198H18.7625C17.9202 17.7198 17.078 17.6557 16.2437 17.7358C15.3373 17.8318 14.7196 17.4876 14.0939 16.8554C11.8479 14.5824 9.53768 12.3654 7.25955 10.1244C7.14724 10.0123 7.07505 9.86026 6.97077 9.7162C5.68731 10.7006 4.49209 11.613 3.3049 12.5415C3.1926 12.6295 3.14447 12.8456 3.14447 12.9977C3.12842 14.3983 3.14447 15.7909 3.14447 17.1915C3.14447 17.3516 3.14447 17.5117 3.14447 17.6877H0V0.43207H3.15249V9.0519C3.33698 8.92384 3.44929 8.85181 3.56159 8.76377C7.07505 6.06657 10.5885 3.36137 14.11 0.664173C14.3025 0.520109 14.5833 0.424066 14.8239 0.416062C16.0592 0.392052 17.3026 0.408059 18.5379 0.408059C18.6663 0.408059 18.7946 0.416062 18.9791 0.520109C15.7945 2.9692 12.6019 5.41028 9.37725 7.89138Z" fill="white"/>
<path d="M146.972 14.3985C146.771 15.6951 146.45 17.712 144.108 17.712C143.322 17.704 142.536 17.712 141.726 17.712V14.6386C142.215 14.6386 142.704 14.6386 143.194 14.6386C143.883 14.6386 144.116 14.4065 144.188 13.7102C144.397 11.6293 144.613 9.54833 144.83 7.47541C144.958 6.21885 144.982 6.21885 145.095 4.95429C145.464 1.51276 147.87 0.712402 153.509 0.712402C156.902 0.712402 158.258 0.936502 158.836 1.19262C160.504 1.94495 161.186 3.38559 161.427 5.08234C161.539 5.86669 161.611 6.66705 161.619 7.4514C161.643 10.7489 161.627 14.0463 161.627 17.3438C161.627 17.4558 161.619 17.5759 161.611 17.72H158.467V3.57768H148.031C148.031 3.57768 147.172 13.1019 146.972 14.3985Z" fill="white"/>
<path d="M93.7884 0.432129V3.12132H84.9085V17.6958H81.7239V3.16134H72.8521V0.432129H93.7884Z" fill="white"/>
<path d="M61.4615 0.432129H49.397V17.6878H52.5815V3.12132H66.6113V17.6958H69.7959V0.432129H61.4615Z" fill="white"/>
<path d="M26.8404 3.46554C32.1025 2.76123 37.3647 2.76123 42.659 3.46554V7.80347H46.1804C46.1323 6.98711 46.0681 6.17074 45.9318 5.35438C45.4986 2.62517 43.8782 1.08848 41.2151 0.536238C39.0813 0.0960427 36.9155 0.0240107 34.7416 0C32.5517 0.0160071 30.3699 0.0800356 28.2281 0.544242C25.8056 1.06447 24.1371 2.38506 23.6397 4.90618C23.4472 5.86661 23.3269 6.83504 23.2708 7.80347H26.8323V3.46554H26.8404Z" fill="white"/>
<path d="M42.659 14.5265C37.3728 15.2308 32.1186 15.2308 26.8404 14.5265V10.3486H23.2869C23.343 11.261 23.4633 12.1654 23.6398 13.0778C24.065 15.2228 25.3484 16.6074 27.4501 17.2397C27.8512 17.3597 28.2522 17.4638 28.6613 17.5358C31.4288 18.032 34.2203 18.0721 37.0118 17.92C38.4316 17.848 39.8595 17.6879 41.2552 17.4318C43.8061 16.9596 45.4345 15.4789 45.8997 12.8698C46.0522 12.0294 46.1324 11.189 46.1805 10.3486H42.667V14.5265H42.659Z" fill="white"/>
</g>
<defs>
<clipPath id="clip0_26_701">
<rect width="208" height="18" fill="white"/>
</clipPath>
</defs>
</svg>
