<svg width="130" height="44" viewBox="0 0 130 44" fill="none" xmlns="http://www.w3.org/2000/svg">
<g clip-path="url(#clip0_26_1308)">
<path d="M64.9866 6.96869C65.2859 6.80849 65.5581 6.675 65.8166 6.52815C69.4224 4.48568 73.001 2.42985 76.6341 0.400727C77.0151 0.187135 77.6546 0.0269408 78.1716 0.0269408C81.9271 0.00024177 80.512 0.0135913 84.3492 0.0135913V3.9784C84.0498 3.9784 83.7369 4.0051 83.4103 4.0051C80.9883 4.0051 83.7505 4.0051 81.3284 4.0051C80.6753 4.0051 80.2127 4.09854 79.75 4.36553C76.7157 6.11432 73.6406 7.83641 70.6062 9.58519C70.0756 9.89223 69.5585 10.0391 68.7693 10.0257C66.252 9.99903 63.7348 9.99903 61.2039 10.0257C60.4827 10.0257 59.9521 9.91893 59.435 9.62524C56.3871 7.86311 53.2847 6.12767 50.2231 4.36553C49.7605 4.09854 49.2843 4.0051 48.6447 4.0051C45.9234 4.01845 48.3998 4.0051 45.624 4.0051V0.0269408H46.5629C50.019 0.0269408 48.3046 0.0135913 51.7607 0.0402903C52.2914 0.0402903 52.9309 0.200484 53.3119 0.414077C56.9585 2.42985 60.5508 4.48568 64.1566 6.52815C64.4151 6.675 64.6872 6.80849 64.9866 6.96869Z" fill="black"/>
<path d="M84.4035 17.9153V21.8668C84.0906 21.8668 83.8048 21.8935 83.5191 21.8935C79.9541 21.8935 81.5733 21.8935 78.0083 21.8534C77.5185 21.8534 76.9061 21.6932 76.5524 21.493C72.6608 19.3704 68.7965 17.2345 64.8369 15.0452C64.728 15.0986 64.4695 15.2321 64.2245 15.3656C60.5915 17.4214 56.9721 19.4772 53.3118 21.5197C52.9853 21.6932 52.4818 21.8668 52.0464 21.8668C48.3453 21.8935 49.8285 21.8801 46.141 21.8801C45.9777 21.8801 45.8145 21.8801 45.6104 21.8534V17.9287C45.9369 17.9287 46.2635 17.902 46.59 17.902C49.0121 17.902 46.2499 17.902 48.6719 17.902C49.325 17.902 49.7877 17.8085 50.2639 17.5415C53.339 15.7927 56.4414 14.0573 59.571 12.3352C59.9248 12.135 60.5371 12.0015 61.0405 11.9881C63.6258 11.9481 66.2111 11.9881 68.7965 11.9614C69.5176 11.9614 70.0483 12.0682 70.5653 12.3619C73.6133 14.0973 76.6884 15.8328 79.7908 17.5282C80.1446 17.7284 80.7569 17.8619 81.2603 17.8753C84.0089 17.902 81.5733 17.8886 84.4171 17.8886L84.4035 17.9153Z" fill="black"/>
<path d="M127.863 39.2876H119.06V42.131H127.863V39.2876ZM130.013 40.6225C130.013 41.0097 130.013 41.4101 129.932 41.7839C129.728 42.7851 129.061 43.3725 128.068 43.5995C127.482 43.733 126.884 43.8131 126.299 43.8264C123.292 43.8531 120.284 43.8264 117.277 43.8264C117.209 43.8264 117.155 43.8264 117.073 43.8264V33.2002C117.155 33.2002 117.25 33.2002 117.332 33.2002C120.148 33.2002 128.748 33.2002 128.748 33.2002V34.9089H119.073V37.5922H127.619C130.027 37.5922 130 39.6347 130.027 40.6359L130.013 40.6225Z" fill="black"/>
<path d="M60.8633 33.1865H72.4972V34.8552H62.8499V37.5652H70.0207V39.2472H62.8635V42.1307H72.6196V43.7994H60.8633V33.1865Z" fill="black"/>
<path d="M77.5594 40.1284V43.7996H75.5728V33.1733C75.668 33.1733 75.7632 33.1733 75.8585 33.1733C78.4438 33.1733 81.0427 33.1733 83.628 33.1733C84.2811 33.1733 84.9343 33.2534 85.5738 33.3736C86.744 33.6139 87.4243 34.3481 87.642 35.5095C87.7917 36.3238 87.7917 37.1381 87.6012 37.9391C87.3291 39.1272 86.5399 39.808 85.1656 39.9949C84.6621 40.0617 84.1451 40.1017 83.628 40.1017C81.7094 40.1017 79.7909 40.1017 77.8723 40.1017C77.7771 40.1017 77.6682 40.1017 77.5594 40.1017V40.1284ZM85.5194 38.433V34.8687H77.573V38.433H85.5194Z" fill="black"/>
<path d="M102.147 43.8263C102.201 43.7061 102.229 43.626 102.269 43.5593C104.079 40.1685 105.889 36.7911 107.685 33.4003C107.767 33.2401 107.848 33.1734 108.039 33.1867C108.882 33.1867 109.74 33.1867 110.583 33.1867C110.747 33.1867 110.842 33.2401 110.923 33.387C112.747 36.7777 114.57 40.1819 116.407 43.5726C116.448 43.6394 116.475 43.7195 116.529 43.8396C116.012 43.8396 115.536 43.7996 115.073 43.8396C114.502 43.9064 114.189 43.7195 113.985 43.1855C113.74 42.5981 113.386 42.0374 113.101 41.4634C113.019 41.3166 112.937 41.2632 112.76 41.2632C110.461 41.2632 108.175 41.2632 105.875 41.2632C105.698 41.2632 105.603 41.3166 105.521 41.4768C105.154 42.1976 104.773 42.9052 104.406 43.626C104.324 43.7729 104.242 43.8263 104.066 43.8263C103.44 43.8263 102.814 43.8263 102.147 43.8263ZM112.094 39.5811C111.168 37.8323 110.27 36.0969 109.331 34.3214C108.393 36.1103 107.467 37.8323 106.542 39.5811H112.094Z" fill="black"/>
<path d="M5.86456 37.7792C7.97362 39.7816 10.0691 41.7707 12.1645 43.7464C12.1645 43.7731 12.1373 43.7864 12.1373 43.8131H11.7291C11.1985 43.8131 10.6678 43.7731 10.1507 43.8131C9.57923 43.8665 9.19824 43.6663 8.80364 43.2658C7.40213 41.8641 5.95981 40.5025 4.53109 39.1275C4.46305 39.0607 4.40862 38.9673 4.3542 38.8738C3.55139 39.4746 2.80301 40.0352 2.06824 40.6093C2.00021 40.6627 1.973 40.7962 1.973 40.8896C1.973 41.744 1.973 42.6117 1.973 43.4661C1.973 43.5595 1.973 43.6663 1.973 43.7731H0V33.1602H1.973V38.46C2.08185 38.3799 2.16349 38.3398 2.23153 38.2864C4.42223 36.6178 6.62654 34.9624 8.81725 33.3071C8.93971 33.2136 9.1166 33.1602 9.26628 33.1602C10.0419 33.1469 10.8175 33.1602 11.5931 33.1602C11.6747 33.1602 11.7563 33.1602 11.8652 33.227C9.87858 34.7355 7.87838 36.2306 5.86456 37.7525V37.7792Z" fill="black"/>
<path d="M91.8599 41.7839C91.7374 42.5849 91.5333 43.813 90.0774 43.813C89.5875 43.813 89.0977 43.813 88.5942 43.813V41.9174C88.8936 41.9174 89.2065 41.9174 89.5059 41.9174C89.9413 41.9174 90.0774 41.7705 90.1318 41.3434C90.2543 40.0618 90.4039 38.7936 90.5264 37.5121C90.6081 36.7378 90.6217 36.7378 90.6897 35.9635C90.921 33.8409 92.4178 33.3604 95.9555 33.3604C98.0782 33.3604 98.9219 33.4938 99.2892 33.654C100.337 34.1213 100.759 35.0023 100.908 36.0436C100.976 36.5242 101.031 37.0181 101.031 37.4987C101.031 39.5278 101.031 41.557 101.031 43.5727C101.031 43.6395 101.031 43.7196 101.031 43.7997H99.0579V35.1091H92.5266C92.5266 35.1091 91.996 40.9696 91.8599 41.7572V41.7839Z" fill="black"/>
<path d="M58.6186 33.2002V34.8555H53.067V43.8131H51.0804V34.8822H45.5288V33.2002H58.6186Z" fill="black"/>
<path d="M38.4122 33.2002H30.874V43.8131H32.8606V34.8555H41.6234V43.8131H43.61V33.2002H38.3986H38.4122Z" fill="black"/>
<path d="M16.7775 35.069C20.0704 34.6418 23.3632 34.6418 26.6697 35.069V37.7389H28.874C28.8468 37.2316 28.806 36.7377 28.7243 36.2304C28.4522 34.5484 27.4453 33.6139 25.7716 33.2668C24.4382 32.9999 23.0775 32.9465 21.7304 32.9331C20.3697 32.9331 18.9954 32.9865 17.6619 33.2668C16.1516 33.5872 15.1038 34.4016 14.7909 35.9501C14.6684 36.5375 14.6004 37.1382 14.5596 37.7256H16.7911V35.0557L16.7775 35.069Z" fill="black"/>
<path d="M26.6697 41.8639C23.3632 42.2911 20.084 42.2911 16.7775 41.8639V39.3008H14.5596C14.6004 39.8615 14.6684 40.4221 14.7773 40.9828C15.0494 42.3044 15.8522 43.1588 17.1585 43.5459C17.4034 43.6127 17.6619 43.6794 17.9205 43.7328C19.6485 44.0399 21.3902 44.0666 23.1455 43.9731C24.03 43.9331 24.928 43.8263 25.7988 43.6661C27.3908 43.3724 28.4114 42.4646 28.6971 40.8627C28.7924 40.342 28.8468 39.8348 28.874 39.3141H26.6833V41.8772L26.6697 41.8639Z" fill="black"/>
</g>
<defs>
<clipPath id="clip0_26_1308">
<rect width="130" height="44" fill="white"/>
</clipPath>
</defs>
</svg>
