<svg width="493" height="43" viewBox="0 0 493 43" fill="none" xmlns="http://www.w3.org/2000/svg">
<g clip-path="url(#clip0_27_81)">
<path d="M484.863 24.6839H451.457V35.7159H484.863V24.6839ZM492.981 29.8462C493.019 31.3375 492.943 32.8862 492.658 34.3584C491.897 38.2779 489.331 40.5532 485.585 41.4136C483.38 41.9107 481.098 42.2548 478.855 42.2739C467.466 42.3695 456.058 42.3122 444.67 42.3122C444.423 42.3122 444.194 42.2931 443.909 42.2739V0.975586C444.232 0.975586 444.556 0.975586 444.898 0.975586C455.602 0.975586 488.171 0.975586 488.171 0.975586L488.133 7.61009H451.476V18.0303H483.893C493.019 18.0303 492.924 25.984 493 29.8844L492.981 29.8462Z" fill="white"/>
<path d="M230.814 0.994141H274.905V7.49481H238.343V18.0297H265.532V24.5686H238.382V35.7536H275.399V42.2351H230.833V0.994141H230.814Z" fill="white"/>
<path d="M294.146 27.972V42.2543H286.636V0.975073C286.978 0.975073 287.358 0.975073 287.719 0.975073C297.549 0.975073 307.36 0.917714 317.189 1.01331C319.642 1.03243 322.152 1.30011 324.566 1.81634C328.996 2.7532 331.601 5.60202 332.38 10.0951C332.932 13.2499 332.932 16.4046 332.247 19.5211C331.221 24.1672 328.198 26.8057 323.026 27.5322C321.087 27.7999 319.129 27.9528 317.189 27.9528C309.926 28.0102 302.644 27.972 295.382 27.972C295.001 27.972 294.64 27.972 294.184 27.972H294.146ZM324.319 21.3948V7.57134H294.203V21.3948H324.319Z" fill="white"/>
<path d="M387.327 42.3304C387.536 41.8906 387.65 41.5656 387.821 41.2788C394.666 28.1245 401.53 14.9702 408.374 1.81592C408.697 1.20409 409.021 0.955533 409.724 0.974653C412.937 1.01289 416.15 1.01289 419.364 0.974653C420.01 0.974653 420.352 1.16585 420.656 1.73944C427.577 14.9511 434.498 28.1245 441.437 41.317C441.57 41.5847 441.685 41.8715 441.894 42.3304C439.954 42.3304 438.129 42.1583 436.361 42.3686C434.194 42.6363 433.034 41.8715 432.216 39.8257C431.304 37.5313 429.973 35.3899 428.87 33.153C428.585 32.5602 428.224 32.3882 427.577 32.3882C418.869 32.4073 410.161 32.4073 401.454 32.3882C400.769 32.3882 400.408 32.5794 400.104 33.2103C398.716 36.0018 397.252 38.755 395.864 41.5656C395.579 42.1583 395.236 42.3495 394.59 42.3495C392.232 42.3112 389.856 42.3495 387.327 42.3495V42.3304ZM425.048 25.8301C421.569 19.0044 418.128 12.2935 414.591 5.37216C410.998 12.3126 407.538 19.0427 404.02 25.8301H425.048Z" fill="white"/>
<path d="M22.2259 18.8522C30.2492 26.6339 38.1776 34.3582 46.1249 42.0634C46.0869 42.159 46.0488 42.2355 45.9918 42.3311H44.4708C42.4744 42.3311 40.4781 42.1781 38.5008 42.3693C36.3523 42.5988 34.8884 41.7766 33.4054 40.2662C28.0818 34.8362 22.6061 29.5401 17.2065 24.1866C16.9403 23.9189 16.7692 23.5556 16.5221 23.2115C13.48 25.5632 10.6471 27.7428 7.83324 29.9607C7.56707 30.171 7.45299 30.6872 7.45299 31.0505C7.41496 34.3965 7.45299 37.7233 7.45299 41.0692C7.45299 41.4516 7.45299 41.834 7.45299 42.2546H0V1.03274H7.472V21.6246C7.9093 21.3186 8.17547 21.1466 8.44165 20.9362C16.7692 14.4929 25.0968 8.03051 33.4434 1.5872C33.8997 1.24305 34.5651 1.01362 35.1355 0.994497C38.0635 0.937138 41.0105 0.975377 43.9384 0.975377C44.2426 0.975377 44.5468 0.994496 44.9841 1.24305C37.4361 7.09365 29.869 12.9251 22.2259 18.8522Z" fill="white"/>
<path d="M348.351 34.3957C347.876 37.4931 347.115 42.3112 341.564 42.3112C339.701 42.2921 337.837 42.3112 335.917 42.3112V34.9693C337.077 34.9693 338.237 34.9693 339.396 34.9693C341.031 34.9693 341.583 34.4148 341.754 32.7514C342.248 27.7803 342.762 22.8092 343.275 17.8572C343.579 14.8555 343.636 14.8555 343.902 11.8346C344.777 3.61313 350.481 1.70117 363.847 1.70117C371.889 1.70117 375.102 2.23652 376.471 2.84835C380.426 4.64559 382.042 8.08712 382.612 12.1405C382.878 14.0142 383.05 15.9262 383.069 17.7999C383.126 25.6772 383.088 33.5544 383.088 41.4317C383.088 41.6994 383.069 41.9862 383.05 42.3303H375.597V8.54599H350.861C350.861 8.54599 348.827 31.2983 348.351 34.3957Z" fill="white"/>
<path d="M222.297 1.03223V7.45642H201.25V42.2732H193.702V7.55201H172.674V1.03223H222.297Z" fill="white"/>
<path d="M145.676 1.03223H117.081V42.2541H124.629V7.45642H157.882V42.2732H165.43V1.03223H145.676Z" fill="white"/>
<path d="M63.6167 8.27879C76.089 6.59626 88.5614 6.59626 101.11 8.27879V18.6416H109.456C109.342 16.6914 109.19 14.7412 108.867 12.791C107.84 6.27123 104 2.60027 97.6875 1.28101C92.6301 0.229435 87.4967 0.0573588 82.3442 0C77.1537 0.0382392 71.9823 0.191196 66.9059 1.30013C61.164 2.54291 57.2094 5.69764 56.0306 11.7203C55.5743 14.0147 55.2891 16.3281 55.156 18.6416H63.5977V8.27879H63.6167Z" fill="white"/>
<path d="M101.11 34.7021C88.5804 36.3846 76.1271 36.3846 63.6167 34.7021V24.7217H55.1941C55.3272 26.9013 55.6124 29.0618 56.0306 31.2415C57.0383 36.3655 60.0804 39.6732 65.0617 41.1837C66.0123 41.4705 66.963 41.719 67.9326 41.8911C74.492 43.0765 81.1084 43.1721 87.7249 42.8088C91.0901 42.6368 94.4744 42.2544 97.7826 41.6425C103.829 40.5145 107.688 36.9773 108.791 30.7444C109.152 28.7368 109.342 26.7292 109.456 24.7217H101.129V34.7021H101.11Z" fill="white"/>
</g>
<defs>
<clipPath id="clip0_27_81">
<rect width="493" height="43" fill="white"/>
</clipPath>
</defs>
</svg>
