<svg width="1505" height="865" viewBox="0 0 1505 865" fill="none" xmlns="http://www.w3.org/2000/svg">
<path d="M751.448 257.043C763.092 251.089 773.496 246.01 783.386 240.649C922.963 165.167 1061.97 89.3756 1202.75 14.5713C1217.3 6.83978 1242.28 0.914132 1262.61 0.744828C1408.44 -0.412084 1353.49 0.124046 1502.23 0.124046V146.854C1490.77 147.137 1478.28 147.729 1465.79 147.757C1371.97 147.842 1478.97 148.209 1385.16 147.532C1359.84 147.334 1341.78 151.172 1323.82 161.02C1206.14 225.468 1086.86 289.098 969.146 353.547C948.64 364.777 928.286 370.308 898.011 369.997C800.323 368.925 702.543 369.094 604.824 369.913C576.636 370.138 556.494 366.019 536.442 354.986C418.005 289.945 297.694 225.891 179.106 160.907C161.081 151.031 142.904 147.391 117.68 147.532C12.3999 148.181 107.941 147.786 0.302246 147.786V0.998785H36.6558C170.88 0.998785 104.282 0.434437 238.476 1.61957C258.921 1.78887 284.023 7.48878 298.601 15.1921C439.842 89.7706 579.298 165.309 719.298 240.564C729.249 245.897 739.653 251.005 751.448 257.043Z" fill="white" fill-opacity="0.03"/>
<path d="M1504.11 717.156V862.645C1492.16 863.068 1481 863.858 1469.84 863.83C1331.74 863.661 1394.47 863.858 1256.41 862.504C1237.17 862.306 1213.88 856.578 1199.85 849.298C1048.84 771.164 899.282 692.184 745.732 611.538C741.709 613.542 731.396 618.367 721.748 623.559C580.84 699.266 440.326 775.199 298.601 850.483C286.171 857.086 266.21 863.237 249.606 863.35C106.308 864.366 163.833 863.915 20.5056 863.887C14.2753 863.887 8.04496 863.407 0 863.096V718.144C12.7026 717.805 25.2237 717.213 37.7448 717.213C131.562 717.128 24.5281 716.761 118.315 717.438C143.509 717.608 161.776 713.939 179.923 704.148C299.267 639.615 419.276 575.42 540.706 512.016C554.588 504.764 578.3 499.572 597.717 499.318C697.976 498.076 798.357 499.233 898.647 498.415C926.804 498.189 946.947 502.281 967.12 513.229C1085.37 577.367 1204.6 640.997 1325.09 703.894C1338.94 711.118 1362.59 716.394 1381.95 716.592C1488.41 717.805 1394.11 717.184 1504.14 717.184L1504.11 717.156Z" fill="white" fill-opacity="0.03"/>
</svg>
