<svg width="34" height="28" viewBox="0 0 34 28" fill="none" xmlns="http://www.w3.org/2000/svg">
<g clip-path="url(#clip0_32_5)">
<path d="M13.1002 18.4399L12.3902 25.9799C12.3902 25.9799 12.0902 28.2899 14.4002 25.9799C16.7102 23.6699 18.9202 21.8899 18.9202 21.8899L13.1002 18.4399Z" fill="white"/>
<path d="M8.27021 16.18L0.670212 13.7C0.670212 13.7 -0.239788 13.33 0.0502117 12.5C0.110212 12.33 0.230212 12.18 0.590212 11.93C2.29021 10.75 31.7702 0.160009 31.7702 0.160009C31.7702 0.160009 32.6002 -0.119991 33.0902 0.0700094C33.3102 0.160009 33.4602 0.250009 33.5802 0.600009C33.6202 0.730009 33.6502 1.00001 33.6502 1.27001C33.6502 1.47001 33.6202 1.65001 33.6102 1.93001C33.4302 4.83001 28.0602 26.45 28.0602 26.45C28.0602 26.45 27.7402 27.72 26.5902 27.76C26.1702 27.78 25.6602 27.69 25.0502 27.17C22.7902 25.23 14.9802 19.98 13.2502 18.82C13.1502 18.76 13.1302 18.67 13.1102 18.59C13.0902 18.47 13.2202 18.32 13.2202 18.32C13.2202 18.32 26.8202 6.23001 27.1902 4.96001C27.2202 4.86001 27.1102 4.81001 26.9702 4.86001C26.0702 5.19001 10.4002 15.08 8.67021 16.18C8.57021 16.24 8.29021 16.2 8.29021 16.2L8.27021 16.18Z" fill="black"/>
</g>
<defs>
<clipPath id="clip0_32_5">
<rect width="33.65" height="27.76" fill="white"/>
</clipPath>
</defs>
</svg>
