<svg width="32" height="32" viewBox="0 0 32 32" fill="none" xmlns="http://www.w3.org/2000/svg">
<g clip-path="url(#clip0_32_2)">
<path fill-rule="evenodd" clip-rule="evenodd" d="M27.3375 4.64944C24.3287 1.6542 20.3277 0 16.0686 0C7.28409 0 0.137131 7.11468 0.137131 15.8595C0.137131 18.654 0.871187 21.3842 2.2667 23.7852L0 32L8.44568 29.7917C10.7769 31.0524 13.3905 31.7189 16.0605 31.7189C24.845 31.7189 31.9919 24.6043 31.9919 15.8595C31.9919 11.6196 30.3383 7.63664 27.3295 4.64141L27.3375 4.64944ZM16.0686 29.0449C13.6889 29.0449 11.3577 28.4105 9.32493 27.206L8.84094 26.9169L3.83161 28.2258L5.17066 23.3596L4.85606 22.8617C3.53315 20.7659 2.83136 18.3408 2.83136 15.8514C2.83136 8.58419 8.77641 2.67403 16.0847 2.67403C19.6259 2.67403 22.9493 4.04718 25.45 6.53651C27.9506 9.02585 29.33 12.3423 29.3219 15.8595C29.3219 23.1267 23.3769 29.0369 16.0766 29.0369L16.0686 29.0449ZM23.3365 19.1759C22.9413 18.9752 20.9811 18.0196 20.6181 17.8831C20.2551 17.7546 19.9889 17.6823 19.7227 18.0838C19.4565 18.4853 18.6983 19.3767 18.4643 19.6336C18.2304 19.8986 17.9965 19.9307 17.6012 19.73C17.2059 19.5292 15.9234 19.1117 14.3988 17.7626C13.213 16.7107 12.4144 15.4178 12.1805 15.0163C11.9466 14.6228 12.1563 14.406 12.358 14.2053C12.5354 14.0286 12.7532 13.7395 12.9549 13.5147C13.1565 13.2818 13.2211 13.1212 13.3501 12.8562C13.4792 12.5912 13.4147 12.3583 13.3179 12.1656C13.2211 11.9649 12.4225 10.0136 12.0918 9.2266C11.7691 8.45571 11.4384 8.5601 11.1964 8.54404C10.9624 8.53601 10.6962 8.52798 10.43 8.52798C10.1639 8.52798 9.73633 8.62434 9.36526 9.02585C9.00227 9.41932 7.96975 10.3829 7.96975 12.3343C7.96975 14.2856 9.39753 16.1646 9.59919 16.4296C9.80086 16.6946 12.4064 20.6936 16.3993 22.412C17.3511 22.8216 18.0933 23.0625 18.666 23.2472C19.6178 23.5523 20.489 23.5041 21.1747 23.4078C21.941 23.2954 23.5301 22.4522 23.8609 21.5207C24.1916 20.5972 24.1916 19.8023 24.0948 19.6336C23.998 19.465 23.7318 19.3686 23.3285 19.1679L23.3365 19.1759Z" fill="white"/>
</g>
<defs>
<clipPath id="clip0_32_2">
<rect width="32" height="32" fill="white"/>
</clipPath>
</defs>
</svg>
