<svg width="1424" height="818" viewBox="0 0 1424 818" fill="none" xmlns="http://www.w3.org/2000/svg">
<g clip-path="url(#clip0_35_91)">
<g opacity="0.41">
<path d="M711.427 243.369C722.451 237.733 732.301 232.924 741.664 227.848C873.808 156.387 1005.41 84.6315 1138.7 13.8112C1152.47 6.49137 1176.12 0.881317 1195.36 0.721029C1333.43 -0.374268 1281.41 0.133309 1422.22 0.133309V139.049C1411.37 139.316 1399.55 139.877 1387.72 139.904C1298.9 139.984 1400.21 140.331 1311.38 139.69C1287.42 139.503 1270.32 143.136 1253.32 152.46C1141.9 213.476 1028.97 273.717 917.531 334.733C898.118 345.366 878.847 350.602 850.185 350.308C757.699 349.293 665.127 349.453 572.612 350.228C545.926 350.441 526.856 346.541 507.872 336.096C395.743 274.519 281.839 213.877 169.567 152.353C152.502 143.003 135.293 139.557 111.413 139.69C11.7398 140.305 102.193 139.931 0.286377 139.931V0.96146H34.7038C161.779 0.96146 98.7283 0.427169 225.775 1.54918C245.131 1.70947 268.897 7.10581 282.698 14.3989C416.417 85.0055 548.446 156.52 680.99 227.768C690.41 232.817 700.26 237.652 711.427 243.369Z" fill="white"/>
<path d="M1424 678.977V816.718C1412.69 817.118 1402.12 817.866 1391.56 817.84C1260.82 817.679 1320.2 817.866 1189.49 816.584C1171.28 816.397 1149.23 810.974 1135.95 804.082C992.98 730.109 851.388 655.335 706.016 578.985C702.207 580.881 692.443 585.45 683.309 590.365C549.906 662.04 416.875 733.929 282.698 805.204C270.93 811.455 252.032 817.279 236.312 817.386C100.647 818.347 155.108 817.92 19.4135 817.893C13.515 817.893 7.6165 817.439 0 817.145V679.912C12.0261 679.592 23.8803 679.031 35.7346 679.031C124.556 678.951 23.2217 678.603 112.014 679.244C135.866 679.405 153.16 675.932 170.341 666.662C283.328 605.566 396.946 544.79 511.909 484.762C525.052 477.897 547.501 472.981 565.883 472.741C660.803 471.565 755.838 472.661 850.786 471.886C877.444 471.672 896.514 475.546 915.613 485.911C1027.57 546.633 1140.44 606.875 1254.52 666.422C1267.63 673.26 1290.02 678.256 1308.35 678.443C1409.14 679.592 1319.86 679.004 1424.03 679.004L1424 678.977Z" fill="white"/>
</g>
</g>
<defs>
<clipPath id="clip0_35_91">
<rect width="1424" height="818" fill="white"/>
</clipPath>
</defs>
</svg>
