<svg width="208" height="18" viewBox="0 0 208 18" fill="none" xmlns="http://www.w3.org/2000/svg">
<g clip-path="url(#clip0_33_416)">
<path d="M204.567 10.3326H190.473V14.9507H204.567V10.3326ZM207.992 12.4936C208.008 13.1179 207.976 13.7661 207.856 14.3824C207.535 16.0231 206.452 16.9756 204.872 17.3357C203.941 17.5438 202.979 17.6879 202.032 17.6959C197.227 17.7359 192.414 17.7119 187.609 17.7119C187.505 17.7119 187.409 17.7039 187.288 17.6959V0.408203C187.425 0.408203 187.561 0.408203 187.705 0.408203C192.222 0.408203 205.963 0.408203 205.963 0.408203L205.947 3.18544H190.481V7.54738H204.158C208.008 7.54738 207.968 10.8769 208 12.5096L207.992 12.4936Z" fill="#656565"/>
<path d="M97.3821 0.416016H115.984V3.13722H100.559V7.54718H112.03V10.2844H100.575V14.9665H116.193V17.6797H97.3901V0.416016H97.3821Z" fill="#656565"/>
<path d="M124.102 11.7095V17.6882H120.934V0.408511C121.078 0.408511 121.238 0.408511 121.391 0.408511C125.538 0.408511 129.677 0.3845 133.824 0.424518C134.859 0.432522 135.918 0.544571 136.937 0.760667C138.806 1.15284 139.905 2.34537 140.234 4.22621C140.466 5.54679 140.466 6.86738 140.177 8.17196C139.744 10.1168 138.469 11.2213 136.287 11.5255C135.469 11.6375 134.643 11.7015 133.824 11.7015C130.76 11.7255 127.688 11.7095 124.624 11.7095C124.463 11.7095 124.311 11.7095 124.118 11.7095H124.102ZM136.832 8.95631V3.16974H124.126V8.95631H136.832Z" fill="#656565"/>
<path d="M163.416 17.7203C163.504 17.5362 163.552 17.4002 163.625 17.2801C166.512 11.7737 169.408 6.26723 172.296 0.760787C172.432 0.504673 172.569 0.400627 172.865 0.40863C174.221 0.424637 175.577 0.424637 176.932 0.40863C177.205 0.40863 177.35 0.488666 177.478 0.728772C180.398 6.25923 183.318 11.7737 186.245 17.2961C186.302 17.4082 186.35 17.5282 186.438 17.7203C185.62 17.7203 184.85 17.6483 184.104 17.7363C183.189 17.8484 182.7 17.5282 182.355 16.6719C181.97 15.7114 181.408 14.815 180.943 13.8786C180.823 13.6305 180.67 13.5585 180.398 13.5585C176.724 13.5665 173.05 13.5665 169.376 13.5585C169.087 13.5585 168.935 13.6385 168.807 13.9026C168.221 15.0711 167.603 16.2237 167.018 17.4002C166.897 17.6483 166.753 17.7283 166.48 17.7283C165.486 17.7123 164.483 17.7283 163.416 17.7283V17.7203ZM179.331 10.8133C177.863 7.95598 176.411 5.14674 174.919 2.24945C173.403 5.15474 171.943 7.97199 170.459 10.8133H179.331Z" fill="#656565"/>
<path d="M9.37725 7.89187C12.7624 11.1493 16.1074 14.3828 19.4604 17.6082C19.4444 17.6482 19.4283 17.6802 19.4042 17.7202H18.7625C17.9202 17.7202 17.078 17.6562 16.2437 17.7362C15.3373 17.8323 14.7196 17.4881 14.0939 16.8559C11.8479 14.5828 9.53768 12.3659 7.25955 10.1249C7.14724 10.0128 7.07505 9.86075 6.97077 9.71668C5.68731 10.7011 4.49209 11.6135 3.3049 12.5419C3.1926 12.63 3.14447 12.8461 3.14447 12.9981C3.12842 14.3988 3.14447 15.7914 3.14447 17.192C3.14447 17.3521 3.14447 17.5121 3.14447 17.6882H0V0.432558H3.15249V9.05239C3.33698 8.92433 3.44929 8.8523 3.56159 8.76426C7.07505 6.06706 10.5885 3.36186 14.11 0.664661C14.3025 0.520597 14.5833 0.424554 14.8239 0.416551C16.0592 0.39254 17.3026 0.408547 18.5379 0.408547C18.6663 0.408547 18.7946 0.416551 18.9791 0.520597C15.7945 2.96969 12.6019 5.41077 9.37725 7.89187Z" fill="#656565"/>
<path d="M146.972 14.398C146.771 15.6946 146.45 17.7115 144.108 17.7115C143.322 17.7035 142.536 17.7115 141.726 17.7115V14.6381C142.215 14.6381 142.704 14.6381 143.194 14.6381C143.883 14.6381 144.116 14.406 144.188 13.7097C144.397 11.6288 144.613 9.54784 144.83 7.47492C144.958 6.21836 144.982 6.21836 145.095 4.9538C145.464 1.51227 147.87 0.711914 153.509 0.711914C156.902 0.711914 158.258 0.936014 158.836 1.19213C160.504 1.94446 161.186 3.3851 161.427 5.08186C161.539 5.86621 161.611 6.66656 161.619 7.45091C161.643 10.7484 161.627 14.0458 161.627 17.3433C161.627 17.4554 161.619 17.5754 161.611 17.7195H158.467V3.57719H148.031C148.031 3.57719 147.172 13.1014 146.972 14.398Z" fill="#656565"/>
<path d="M93.7884 0.432617V3.12181H84.9085V17.6963H81.7239V3.16183H72.8521V0.432617H93.7884Z" fill="#656565"/>
<path d="M61.4615 0.432617H49.397V17.6883H52.5815V3.12181H66.6113V17.6963H69.7959V0.432617H61.4615Z" fill="#656565"/>
<path d="M26.8404 3.46554C32.1025 2.76123 37.3647 2.76123 42.659 3.46554V7.80347H46.1804C46.1323 6.98711 46.0681 6.17074 45.9318 5.35438C45.4986 2.62517 43.8782 1.08848 41.2151 0.536238C39.0813 0.0960427 36.9155 0.0240107 34.7416 0C32.5517 0.0160071 30.3699 0.0800356 28.2281 0.544242C25.8056 1.06447 24.1371 2.38506 23.6397 4.90618C23.4472 5.86661 23.3269 6.83504 23.2708 7.80347H26.8323V3.46554H26.8404Z" fill="#656565"/>
<path d="M42.659 14.5265C37.3728 15.2308 32.1186 15.2308 26.8404 14.5265V10.3486H23.2869C23.343 11.261 23.4633 12.1654 23.6398 13.0778C24.065 15.2228 25.3484 16.6074 27.4501 17.2397C27.8512 17.3597 28.2522 17.4638 28.6613 17.5358C31.4288 18.032 34.2203 18.0721 37.0118 17.92C38.4316 17.848 39.8595 17.6879 41.2552 17.4318C43.8061 16.9596 45.4345 15.4789 45.8997 12.8698C46.0522 12.0294 46.1324 11.189 46.1805 10.3486H42.667V14.5265H42.659Z" fill="#656565"/>
</g>
<defs>
<clipPath id="clip0_33_416">
<rect width="208" height="18" fill="white"/>
</clipPath>
</defs>
</svg>
