<svg width="276" height="28" viewBox="0 0 276 28" fill="none" xmlns="http://www.w3.org/2000/svg">
<g clip-path="url(#clip0_2008_4)">
<path d="M272.567 16.3326H258.473V20.9507H272.567V16.3326ZM275.992 18.4936C276.008 19.1179 275.976 19.7661 275.856 20.3824C275.535 22.0231 274.452 22.9756 272.872 23.3357C271.941 23.5438 270.979 23.6879 270.032 23.6959C265.227 23.7359 260.414 23.7119 255.609 23.7119C255.505 23.7119 255.409 23.7039 255.288 23.6959V6.4082C255.425 6.4082 255.561 6.4082 255.705 6.4082C260.222 6.4082 273.963 6.4082 273.963 6.4082L273.947 9.18544H258.481V13.5474H272.158C276.008 13.5474 275.968 16.8769 276 18.5096L275.992 18.4936Z" fill="#656565"/>
<path d="M165.382 6.41602H183.984V9.13722H168.559V13.5472H180.03V16.2844H168.575V20.9665H184.193V23.6797H165.39V6.41602H165.382Z" fill="#656565"/>
<path d="M192.102 17.7095V23.6882H188.934V6.40851C189.078 6.40851 189.238 6.40851 189.391 6.40851C193.538 6.40851 197.677 6.3845 201.824 6.42452C202.859 6.43252 203.918 6.54457 204.937 6.76067C206.806 7.15284 207.905 8.34537 208.234 10.2262C208.466 11.5468 208.466 12.8674 208.177 14.172C207.744 16.1168 206.469 17.2213 204.287 17.5255C203.469 17.6375 202.643 17.7015 201.824 17.7015C198.76 17.7255 195.688 17.7095 192.624 17.7095C192.463 17.7095 192.311 17.7095 192.118 17.7095H192.102ZM204.832 14.9563V9.16974H192.126V14.9563H204.832Z" fill="#656565"/>
<path d="M231.416 23.7203C231.504 23.5362 231.552 23.4002 231.625 23.2801C234.512 17.7737 237.408 12.2672 240.296 6.76079C240.432 6.50467 240.569 6.40063 240.865 6.40863C242.221 6.42464 243.577 6.42464 244.932 6.40863C245.205 6.40863 245.35 6.48867 245.478 6.72877C248.398 12.2592 251.318 17.7737 254.245 23.2961C254.302 23.4082 254.35 23.5282 254.438 23.7203C253.62 23.7203 252.85 23.6483 252.104 23.7363C251.189 23.8484 250.7 23.5282 250.355 22.6719C249.97 21.7114 249.408 20.815 248.943 19.8786C248.823 19.6305 248.67 19.5585 248.398 19.5585C244.724 19.5665 241.05 19.5665 237.376 19.5585C237.087 19.5585 236.935 19.6385 236.807 19.9026C236.221 21.0711 235.603 22.2237 235.018 23.4002C234.897 23.6483 234.753 23.7283 234.48 23.7283C233.486 23.7123 232.483 23.7283 231.416 23.7283V23.7203ZM247.331 16.8133C245.863 13.956 244.411 11.1467 242.919 8.24945C241.403 11.1547 239.943 13.972 238.459 16.8133H247.331Z" fill="#656565"/>
<path d="M77.3772 13.8919C80.7624 17.1493 84.1074 20.3828 87.4604 23.6082C87.4444 23.6482 87.4283 23.6802 87.4042 23.7202H86.7625C85.9202 23.7202 85.078 23.6562 84.2437 23.7362C83.3373 23.8323 82.7196 23.4881 82.0939 22.8559C79.8479 20.5828 77.5377 18.3659 75.2595 16.1249C75.1472 16.0128 75.075 15.8607 74.9708 15.7167C73.6873 16.7011 72.4921 17.6135 71.3049 18.5419C71.1926 18.63 71.1445 18.8461 71.1445 18.9981C71.1284 20.3988 71.1445 21.7914 71.1445 23.192C71.1445 23.3521 71.1445 23.5121 71.1445 23.6882H68V6.43256H71.1525V15.0524C71.337 14.9243 71.4493 14.8523 71.5616 14.7643C75.075 12.0671 78.5885 9.36186 82.11 6.66466C82.3025 6.5206 82.5833 6.42455 82.8239 6.41655C84.0592 6.39254 85.3026 6.40855 86.5379 6.40855C86.6663 6.40855 86.7946 6.41655 86.9791 6.5206C83.7945 8.96969 80.6019 11.4108 77.3772 13.8919Z" fill="#656565"/>
<path d="M214.972 20.398C214.771 21.6946 214.45 23.7115 212.108 23.7115C211.322 23.7035 210.536 23.7115 209.726 23.7115V20.6381C210.215 20.6381 210.704 20.6381 211.194 20.6381C211.883 20.6381 212.116 20.406 212.188 19.7097C212.397 17.6288 212.613 15.5478 212.83 13.4749C212.958 12.2184 212.982 12.2184 213.095 10.9538C213.464 7.51227 215.87 6.71191 221.509 6.71191C224.902 6.71191 226.258 6.93601 226.836 7.19213C228.504 7.94446 229.186 9.3851 229.427 11.0819C229.539 11.8662 229.611 12.6666 229.619 13.4509C229.643 16.7484 229.627 20.0458 229.627 23.3433C229.627 23.4554 229.619 23.5754 229.611 23.7195H226.467V9.57719H216.031C216.031 9.57719 215.172 19.1014 214.972 20.398Z" fill="#656565"/>
<path d="M161.788 6.43262V9.12181H152.909V23.6963H149.724V9.16183H140.852V6.43262H161.788Z" fill="#656565"/>
<path d="M129.461 6.43262H117.397V23.6883H120.582V9.12181H134.611V23.6963H137.796V6.43262H129.461Z" fill="#656565"/>
<path d="M94.8404 9.46554C100.103 8.76123 105.365 8.76123 110.659 9.46554V13.8035H114.18C114.132 12.9871 114.068 12.1707 113.932 11.3544C113.499 8.62517 111.878 7.08848 109.215 6.53624C107.081 6.09604 104.915 6.02401 102.742 6C100.552 6.01601 98.3699 6.08004 96.2281 6.54424C93.8056 7.06447 92.1371 8.38506 91.6397 10.9062C91.4472 11.8666 91.3269 12.835 91.2708 13.8035H94.8323V9.46554H94.8404Z" fill="#656565"/>
<path d="M110.659 20.5265C105.373 21.2308 100.119 21.2308 94.8404 20.5265V16.3486H91.2869C91.343 17.261 91.4633 18.1654 91.6398 19.0778C92.065 21.2228 93.3484 22.6074 95.4501 23.2397C95.8512 23.3597 96.2522 23.4638 96.6613 23.5358C99.4288 24.032 102.22 24.0721 105.012 23.92C106.432 23.848 107.859 23.6879 109.255 23.4318C111.806 22.9596 113.434 21.4789 113.9 18.8698C114.052 18.0294 114.132 17.189 114.181 16.3486H110.667V20.5265H110.659Z" fill="#656565"/>
</g>
<path d="M24.481 8.85116C24.8611 8.64484 25.1968 8.46979 25.5198 8.28848C30.0676 5.68769 34.5965 3.07438 39.1823 0.498591C39.6574 0.229758 40.4681 0.0296966 41.1332 0.0234447C45.8837 -0.0140668 44.0912 0.00468894 48.943 0.00468894V5.05624C48.5693 5.06875 48.1639 5.0875 47.7586 5.0875C44.6992 5.0875 48.1893 5.10626 45.1299 5.08125C44.3065 5.075 43.7175 5.20629 43.1347 5.54389C39.3027 7.76332 35.4136 9.95775 31.5815 12.1772C30.9164 12.5648 30.2513 12.7524 29.2632 12.7461C26.0772 12.7086 22.8975 12.7148 19.7115 12.7461C18.7931 12.7524 18.1343 12.6148 17.4819 12.2334C13.6245 9.98901 9.70375 7.78208 5.84 5.54389C5.25094 5.20629 4.66187 5.075 3.83845 5.08125C0.405405 5.10626 3.52174 5.0875 0.0126953 5.0875V0.0296966H1.19716C5.56764 0.0296966 3.4014 0.0109409 7.77187 0.0484524C8.43695 0.0484524 9.25404 0.248514 9.72909 0.517346C14.3339 3.08689 18.8754 5.69394 23.4359 8.28848C23.759 8.46979 24.101 8.6511 24.481 8.85741V8.85116Z" fill="#656565"/>
<path d="M49 22.7681V27.7822C48.6136 27.7947 48.2463 27.8259 47.8852 27.8259C43.3881 27.8197 45.4276 27.8259 40.9305 27.7822C40.3034 27.7759 39.5433 27.5759 39.0872 27.3258C34.1657 24.6312 29.2949 21.9116 24.291 19.1295C24.158 19.1983 23.8223 19.3671 23.5119 19.5422C18.9197 22.1492 14.3402 24.7688 9.72272 27.3633C9.31735 27.5884 8.66494 27.8009 8.12655 27.8072C3.45838 27.8447 5.33324 27.8259 0.66507 27.8259C0.462381 27.8259 0.259695 27.8072 0 27.8009V22.8057C0.411711 22.7932 0.823425 22.7744 1.2288 22.7744C4.28814 22.7744 0.798088 22.7619 3.85109 22.7806C4.67451 22.7806 5.26991 22.6619 5.85897 22.3243C9.74806 20.0986 13.6562 17.8854 17.6149 15.7035C18.0646 15.4534 18.8374 15.2721 19.4708 15.2658C22.7391 15.2221 26.0075 15.2658 29.2759 15.2346C30.1943 15.2283 30.8467 15.3659 31.5054 15.7472C35.3565 17.9604 39.2456 20.1486 43.1664 22.318C43.6161 22.5681 44.3888 22.7494 45.0159 22.7556C48.4869 22.7994 45.4149 22.7744 48.9937 22.7744L49 22.7681Z" fill="#656565"/>
<defs>
<clipPath id="clip0_2008_4">
<rect width="208" height="18" fill="white" transform="translate(68 6)"/>
</clipPath>
</defs>
</svg>
