<svg width="447" height="163" viewBox="0 0 447 163" fill="none" xmlns="http://www.w3.org/2000/svg">
<g clip-path="url(#clip0_2100_3)">
<path d="M439.622 146.387H409.333V156.393H439.622V146.387ZM446.983 151.069C447.017 152.422 446.948 153.826 446.69 155.162C446 158.717 443.673 160.78 440.277 161.561C438.277 162.011 436.209 162.324 434.174 162.341C423.848 162.428 413.505 162.376 403.179 162.376C402.955 162.376 402.748 162.358 402.49 162.341V124.884C402.783 124.884 403.076 124.884 403.386 124.884C413.091 124.884 442.621 124.884 442.621 124.884L442.587 130.902H409.351V140.352H438.743C447.017 140.352 446.931 147.566 447 151.104L446.983 151.069Z" fill="white"/>
<path d="M209.278 124.902H249.255V130.798H216.105V140.353H240.756V146.283H216.139V156.428H249.703V162.306H209.295V124.902H209.278Z" fill="white"/>
<path d="M266.7 149.37V162.324H259.891V124.884C260.201 124.884 260.546 124.884 260.873 124.884C269.786 124.884 278.681 124.832 287.594 124.919C289.817 124.936 292.093 125.179 294.282 125.647C298.299 126.497 300.66 129.081 301.367 133.156C301.867 136.017 301.867 138.879 301.247 141.705C300.316 145.919 297.575 148.312 292.886 148.971C291.127 149.214 289.352 149.353 287.594 149.353C281.008 149.405 274.406 149.37 267.821 149.37C267.476 149.37 267.148 149.37 266.735 149.37H266.7ZM294.058 143.405V130.867H266.752V143.405H294.058Z" fill="white"/>
<path d="M351.187 162.393C351.377 161.994 351.48 161.7 351.635 161.439C357.841 149.509 364.065 137.578 370.271 125.647C370.564 125.093 370.857 124.867 371.494 124.884C374.408 124.919 377.321 124.919 380.235 124.884C380.821 124.884 381.131 125.058 381.407 125.578C387.682 137.561 393.957 149.509 400.249 161.474C400.369 161.717 400.473 161.977 400.662 162.393C398.904 162.393 397.249 162.237 395.646 162.428C393.681 162.671 392.629 161.977 391.888 160.121C391.06 158.041 389.854 156.098 388.854 154.069C388.595 153.532 388.268 153.376 387.682 153.376C379.786 153.393 371.891 153.393 363.996 153.376C363.375 153.376 363.047 153.549 362.772 154.121C361.513 156.653 360.186 159.15 358.927 161.699C358.669 162.237 358.359 162.41 357.772 162.41C355.635 162.376 353.48 162.41 351.187 162.41V162.393ZM385.389 147.428C382.234 141.237 379.114 135.15 375.908 128.873C372.649 135.168 369.512 141.272 366.323 147.428H385.389Z" fill="white"/>
<path d="M20.1521 141.098C27.4268 148.156 34.6154 155.162 41.8211 162.15C41.7867 162.237 41.7522 162.306 41.7005 162.393H40.3214C38.5113 162.393 36.7012 162.254 34.9084 162.428C32.9604 162.636 31.6331 161.89 30.2884 160.52C25.4616 155.595 20.4968 150.792 15.601 145.936C15.3597 145.694 15.2046 145.364 14.9804 145.052C12.2223 147.185 9.65368 149.162 7.10235 151.173C6.86101 151.364 6.75758 151.832 6.75758 152.162C6.7231 155.197 6.75758 158.214 6.75758 161.249C6.75758 161.595 6.75758 161.942 6.75758 162.324H0V124.936H6.77482V143.613C7.17131 143.335 7.41265 143.179 7.65399 142.988C15.2046 137.144 22.7551 131.283 30.3229 125.439C30.7366 125.127 31.34 124.919 31.8572 124.902C34.5119 124.85 37.1839 124.884 39.8387 124.884C40.1145 124.884 40.3903 124.902 40.7868 125.127C33.943 130.434 27.082 135.723 20.1521 141.098Z" fill="white"/>
<path d="M315.848 155.197C315.417 158.006 314.727 162.376 309.694 162.376C308.004 162.358 306.315 162.376 304.574 162.376V155.717C305.625 155.717 306.677 155.717 307.728 155.717C309.211 155.717 309.711 155.214 309.866 153.705C310.314 149.197 310.78 144.688 311.245 140.197C311.521 137.474 311.573 137.474 311.814 134.734C312.607 127.278 317.779 125.543 329.897 125.543C337.189 125.543 340.103 126.029 341.344 126.584C344.93 128.214 346.395 131.335 346.912 135.012C347.153 136.711 347.309 138.445 347.326 140.145C347.377 147.289 347.343 154.434 347.343 161.578C347.343 161.821 347.326 162.081 347.309 162.393H340.551V131.752H318.123C318.123 131.752 316.279 152.387 315.848 155.197Z" fill="white"/>
<path d="M201.555 124.937V130.763H182.472V162.341H175.628V130.85H156.562V124.937H201.555Z" fill="white"/>
<path d="M132.083 124.937H106.156V162.324H113V130.763H143.15V162.341H149.994V124.937H132.083Z" fill="white"/>
<path d="M57.6808 131.509C68.9894 129.983 80.298 129.983 91.6755 131.509V140.908H99.2433C99.1399 139.139 99.002 137.37 98.7089 135.601C97.778 129.688 94.2958 126.358 88.5725 125.162C83.987 124.208 79.3326 124.052 74.6609 124C69.9547 124.035 65.2658 124.173 60.663 125.179C55.457 126.306 51.8713 129.168 50.8025 134.63C50.3888 136.711 50.1302 138.809 50.0095 140.908H57.6635V131.509H57.6808Z" fill="white"/>
<path d="M91.6755 155.474C80.3151 157 69.0238 157 57.6807 155.474V146.422H50.0439C50.1646 148.399 50.4232 150.358 50.8024 152.335C51.7161 156.983 54.4743 159.983 58.9908 161.353C59.8528 161.613 60.7147 161.838 61.5939 161.994C67.5412 163.069 73.5403 163.156 79.5394 162.826C82.5906 162.67 85.6591 162.324 88.6587 161.769C94.1406 160.746 97.6401 157.537 98.6399 151.884C98.9674 150.063 99.1398 148.243 99.2433 146.422H91.6927V155.474H91.6755Z" fill="white"/>
</g>
<path d="M223.139 28.2514C224.352 27.5929 225.423 27.0342 226.454 26.4555C240.97 18.1541 255.426 9.81292 270.063 1.59142C271.579 0.73335 274.167 0.0947867 276.29 0.0748316C291.453 -0.044899 285.731 0.0149663 301.218 0.0149663V16.1387C300.025 16.1786 298.731 16.2385 297.437 16.2385C287.672 16.2385 298.812 16.2983 289.047 16.2185C286.419 16.1985 284.538 16.6176 282.678 17.6952C270.447 24.7792 258.034 31.7835 245.802 38.8675C243.68 40.1047 241.557 40.7034 238.403 40.6834C228.234 40.5637 218.085 40.5837 207.915 40.6834C204.984 40.7034 202.881 40.2644 200.799 39.0471C188.487 31.8832 175.972 24.8391 163.64 17.6952C161.76 16.6176 159.879 16.1985 157.251 16.2185C146.294 16.2983 156.24 16.2385 145.04 16.2385V0.0947867H148.821C162.77 0.0947867 155.856 0.0349214 169.806 0.154652C171.929 0.154652 174.537 0.793215 176.053 1.65128C190.751 9.85283 205.247 18.1741 219.803 26.4555C220.834 27.0342 221.926 27.6129 223.139 28.2714V28.2514Z" fill="#B8F446"/>
<path d="M301.4 72.6723V88.6763C300.167 88.7162 298.994 88.8159 297.842 88.8159C283.487 88.796 289.997 88.8159 275.643 88.6763C273.642 88.6563 271.216 88.0177 269.76 87.2195C254.051 78.6189 238.504 69.9384 222.533 61.0584C222.108 61.2779 221.037 61.8167 220.046 62.3754C205.389 70.6967 190.772 79.0579 176.033 87.3393C174.739 88.0577 172.657 88.7361 170.939 88.7561C156.039 88.8758 162.023 88.8159 147.123 88.8159C146.476 88.8159 145.829 88.7561 145 88.7361V72.792C146.314 72.7521 147.628 72.6922 148.922 72.6922C158.687 72.6922 147.547 72.6523 157.292 72.7122C159.92 72.7122 161.821 72.333 163.701 71.2555C176.114 64.1514 188.588 57.0873 201.224 50.123C202.659 49.3248 205.126 48.7461 207.148 48.7262C217.58 48.5865 228.012 48.7262 238.444 48.6264C241.375 48.6064 243.458 49.0454 245.56 50.2627C257.852 57.3268 270.265 64.3111 282.78 71.2355C284.215 72.0337 286.682 72.6124 288.683 72.6324C299.762 72.772 289.957 72.6922 301.38 72.6922L301.4 72.6723Z" fill="#B8F446"/>
<defs>
<clipPath id="clip0_2100_3">
<rect width="447" height="39" fill="white" transform="translate(0 124)"/>
</clipPath>
</defs>
</svg>
