<svg width="803" height="305" viewBox="0 0 803 305" fill="none" xmlns="http://www.w3.org/2000/svg">
<g clip-path="url(#clip0_35_87)">
<g opacity="0.41">
<path d="M401.177 57.4532C407.393 54.2696 412.948 51.5537 418.228 48.687C492.744 8.3261 566.953 -32.2007 642.116 -72.1995C649.882 -76.3337 663.219 -79.5022 674.07 -79.5927C751.928 -80.2113 722.59 -79.9246 801.999 -79.9246V-1.46612C795.879 -1.31524 789.211 -0.998383 782.542 -0.983299C732.456 -0.938034 789.582 -0.741882 739.495 -1.104C725.981 -1.20962 716.341 0.842369 706.75 6.10815C643.924 40.5695 580.242 74.5934 517.4 109.055C506.452 115.06 495.586 118.017 479.423 117.851C427.27 117.278 375.068 117.368 322.898 117.806C307.85 117.927 297.096 115.724 286.391 109.824C223.161 75.046 158.93 40.7959 95.6198 6.04779C85.9964 0.76693 76.2923 -1.17944 62.8261 -1.104C6.61999 -0.756973 57.6269 -0.968208 0.161377 -0.968208V-79.4569H19.5695C91.2279 -79.4569 55.6732 -79.7587 127.315 -79.125C138.23 -79.0344 151.632 -75.9866 159.415 -71.8676C234.819 -31.9895 309.271 8.40155 384.013 48.6417C389.325 51.4934 394.88 54.2243 401.177 57.4532Z" fill="white" fill-opacity="0.15"/>
<path d="M803 303.481V381.276C796.622 381.502 790.664 381.925 784.706 381.909C710.981 381.819 744.469 381.925 670.76 381.2C660.491 381.095 648.058 378.032 640.566 374.139C559.946 332.36 480.101 290.128 398.125 247.006C395.978 248.077 390.472 250.657 385.321 253.434C310.094 293.915 235.078 334.517 159.415 374.773C152.779 378.303 142.122 381.593 133.257 381.653C56.7551 382.196 87.4658 381.955 10.9474 381.94C7.62117 381.94 4.29498 381.683 0 381.517V304.009C6.78155 303.828 13.4662 303.511 20.1509 303.511C70.2375 303.466 13.0948 303.27 63.1653 303.632C76.6154 303.722 86.3679 301.761 96.0558 296.525C159.77 262.019 223.84 227.693 288.668 193.79C296.079 189.912 308.738 187.136 319.104 187C372.63 186.336 426.22 186.955 479.762 186.518C494.795 186.397 505.548 188.585 516.318 194.439C579.451 228.734 643.101 262.758 707.429 296.39C714.824 300.252 727.45 303.074 737.784 303.179C794.62 303.828 744.275 303.496 803.016 303.496L803 303.481Z" fill="white" fill-opacity="0.15"/>
</g>
</g>
<defs>
<clipPath id="clip0_35_87">
<rect width="803" height="462" fill="white" transform="translate(0 -80)"/>
</clipPath>
</defs>
</svg>
