<svg width="49" height="28" viewBox="0 0 49 28" fill="none" xmlns="http://www.w3.org/2000/svg">
<path d="M24.481 8.85116C24.8611 8.64484 25.1968 8.46979 25.5198 8.28848C30.0676 5.68769 34.5965 3.07438 39.1823 0.498591C39.6574 0.229758 40.4681 0.0296966 41.1332 0.0234447C45.8837 -0.0140668 44.0912 0.00468894 48.943 0.00468894V5.05624C48.5693 5.06875 48.1639 5.0875 47.7586 5.0875C44.6992 5.0875 48.1893 5.10626 45.1299 5.08125C44.3065 5.075 43.7175 5.20629 43.1347 5.54389C39.3027 7.76332 35.4136 9.95775 31.5815 12.1772C30.9164 12.5648 30.2513 12.7524 29.2632 12.7461C26.0772 12.7086 22.8975 12.7148 19.7115 12.7461C18.7931 12.7524 18.1343 12.6148 17.4819 12.2334C13.6245 9.98901 9.70375 7.78208 5.84 5.54389C5.25094 5.20629 4.66187 5.075 3.83845 5.08125C0.405405 5.10626 3.52174 5.0875 0.0126953 5.0875V0.0296966H1.19716C5.56764 0.0296966 3.4014 0.0109409 7.77187 0.0484524C8.43695 0.0484524 9.25404 0.248514 9.72909 0.517346C14.3339 3.08689 18.8754 5.69394 23.4359 8.28848C23.759 8.46979 24.101 8.6511 24.481 8.85741V8.85116Z" fill="#B8F446"/>
<path d="M49 22.7681V27.7822C48.6136 27.7947 48.2463 27.8259 47.8852 27.8259C43.3881 27.8197 45.4276 27.8259 40.9305 27.7822C40.3034 27.7759 39.5433 27.5759 39.0872 27.3258C34.1657 24.6312 29.2949 21.9116 24.291 19.1295C24.158 19.1983 23.8223 19.3671 23.5119 19.5422C18.9197 22.1492 14.3402 24.7688 9.72272 27.3633C9.31735 27.5884 8.66494 27.8009 8.12655 27.8072C3.45838 27.8447 5.33324 27.8259 0.66507 27.8259C0.462381 27.8259 0.259695 27.8072 0 27.8009V22.8057C0.411711 22.7932 0.823425 22.7744 1.2288 22.7744C4.28814 22.7744 0.798088 22.7619 3.85109 22.7806C4.67451 22.7806 5.26991 22.6619 5.85897 22.3243C9.74806 20.0986 13.6562 17.8854 17.6149 15.7035C18.0646 15.4534 18.8374 15.2721 19.4708 15.2658C22.7391 15.2221 26.0075 15.2658 29.2759 15.2346C30.1943 15.2283 30.8467 15.3659 31.5054 15.7472C35.3565 17.9604 39.2456 20.1486 43.1664 22.318C43.6161 22.5681 44.3888 22.7494 45.0159 22.7556C48.4869 22.7994 45.4149 22.7744 48.9937 22.7744L49 22.7681Z" fill="#B8F446"/>
</svg>
