<svg width="32" height="50" viewBox="0 0 32 50" fill="none" xmlns="http://www.w3.org/2000/svg">
<g clip-path="url(#clip0_26_861)">
<path d="M0 50C0 47.5268 0 45.1937 0.0230714 42.8605C0.0230714 42.6038 0.415285 42.2538 0.692141 42.1139C4.93727 39.7573 9.20548 37.4008 13.4737 35.0677C19.3569 31.8245 25.2632 28.6048 31.1464 25.385C31.2848 25.315 31.4232 25.175 31.6309 24.9883C29.3929 23.7518 27.2473 22.5618 25.0786 21.3719C18.8955 17.9888 12.7354 14.5824 6.55227 11.1993C4.56813 10.126 2.60707 9.05273 0.645999 7.90947C0.346071 7.74615 0 7.34951 0 7.0462C0 4.75968 0 2.4965 0 0C0.461428 0.209986 0.784427 0.349977 1.08435 0.489967C11.005 5.97293 20.9257 11.4326 30.8695 16.8689C31.7462 17.3355 32 17.8721 32 18.8287C31.9539 23.0751 31.9539 27.3215 32 31.5912C32 32.3145 31.7693 32.7112 31.1464 33.0378C21.0411 38.5674 10.9589 44.0971 0.876712 49.65C0.66907 49.7667 0.438356 49.8367 0.0461428 50H0Z" fill="#B8F446"/>
</g>
<defs>
<clipPath id="clip0_26_861">
<rect width="32" height="50" fill="white"/>
</clipPath>
</defs>
</svg>
