<svg width="80" height="352" viewBox="0 0 80 352" fill="none" xmlns="http://www.w3.org/2000/svg">
<g clip-path="url(#clip0_26_850)">
<g opacity="0.26">
<path d="M0 225.796V8.04513C0 3.00925 3.56901 0 8.70337 0H71.7767C76.911 0 79.9791 3.00925 79.9791 8.04513V225.796C79.9791 230.832 76.911 233.821 71.7767 233.821H8.70337C3.56901 233.821 0 230.832 0 225.796ZM0.500913 343.975V282.603C0.500913 277.588 3.56901 274.067 8.70337 274.067H71.2549C76.3892 274.067 80 277.608 80 282.603V343.975C80 348.991 76.3892 352 71.2549 352H8.70337C3.56901 352 0.500913 348.991 0.500913 343.975Z" fill="white"/>
</g>
</g>
<defs>
<clipPath id="clip0_26_850">
<rect width="80" height="352" fill="white"/>
</clipPath>
</defs>
</svg>
