<svg width="391" height="353" viewBox="0 0 391 353" fill="none" xmlns="http://www.w3.org/2000/svg">
<g opacity="0.05" clip-path="url(#clip0_26_847)">
<path d="M140.491 226.008V196.522C140.491 160 154.99 126.013 217.996 126.013H286.477C312.495 126.013 311.988 108.512 311.988 95.5336C311.988 82.5551 312.495 69.5361 286.477 69.5361H109.505C89.0032 69.5361 77.9919 76.0253 77.9919 105.024C77.9919 110.52 74.9906 113.521 69.4951 113.521H8.49678C3.00125 113.521 0 110.52 0 105.024V94.5196C0 32 31.0061 0 109.505 0H295.015C359.501 0 390.02 24.4968 390.02 99.9949C390.02 175.493 360.028 192.994 295.501 192.994H246.001C230.021 192.994 219.01 200.497 219.01 215.016V226.008C219.01 231.016 216.009 234.504 211 234.504H148.521C143.512 234.504 140.511 231.016 140.511 226.008H140.491ZM139.984 344.03V283.011C139.984 278.023 142.985 274.515 147.994 274.515H208.992C214.001 274.515 217.489 278.023 217.489 283.011V344.03C217.489 349.019 214.001 352.02 208.992 352.02H147.994C142.985 352.02 139.984 349.019 139.984 344.03Z" fill="white"/>
</g>
<defs>
<clipPath id="clip0_26_847">
<rect width="391" height="353" fill="white"/>
</clipPath>
</defs>
</svg>
