<svg width="56" height="54" viewBox="0 0 56 54" fill="none" xmlns="http://www.w3.org/2000/svg">
<path d="M21.027 41.001C20.8581 41.001 20.6892 40.9318 20.5723 40.7934C20.3125 40.5166 20.3125 40.0876 20.5723 39.8109L33.0827 26.4846L20.5723 13.1721C20.3125 12.9092 20.3125 12.4663 20.5723 12.2034C20.8321 11.9405 21.2348 11.9266 21.4817 12.2034L34.4467 26.0141C34.7065 26.2908 34.7065 26.7198 34.4467 26.9966L21.4817 40.7934C21.3518 40.9318 21.1829 41.001 21.027 41.001Z" fill="white"/>
<path d="M1.00018 27C1.00018 41.3419 12.8512 53 27.5096 53C42.1681 53 54.019 41.3419 54.019 27C54.019 12.6581 42.1681 1 27.5096 1C12.8512 1 1.00018 12.6581 1.00018 27Z" stroke="white" stroke-width="2"/>
</svg>
