<svg width="643" height="512" viewBox="0 0 643 512" fill="none" xmlns="http://www.w3.org/2000/svg">
<g clip-path="url(#clip0_35_79)">
<g opacity="0.41">
<path d="M445.142 152.329C452.039 148.801 458.202 145.791 464.061 142.614C546.743 97.8852 629.086 52.9723 712.485 8.64472C721.102 4.06314 735.901 0.551708 747.941 0.451381C834.332 -0.234184 801.778 0.0835172 889.889 0.0835172V87.0332C883.099 87.2004 875.7 87.5516 868.3 87.5683C812.725 87.6185 876.112 87.8358 820.536 87.4345C805.541 87.3175 794.845 89.5915 784.203 95.4272C714.491 133.618 643.83 171.324 574.101 209.515C561.954 216.17 549.897 219.448 531.963 219.264C474.094 218.628 416.171 218.729 358.285 219.213C341.587 219.347 329.655 216.906 317.777 210.368C247.617 171.826 176.348 133.869 106.099 95.3603C95.4208 89.5079 84.6533 87.3509 69.7113 87.4345C7.34561 87.8191 63.9423 87.585 0.179199 87.585V0.601871H21.7143C101.226 0.601871 61.7745 0.267449 141.268 0.969735C153.379 1.07006 168.249 4.44772 176.885 9.01258C260.553 53.2064 343.164 97.9688 426.097 142.564C431.991 145.724 438.154 148.751 445.142 152.329Z" fill="white"/>
<path d="M891 424.983V511.197C883.923 511.448 877.312 511.916 870.701 511.9C788.897 511.799 826.054 511.916 744.268 511.114C732.873 510.997 719.078 507.602 710.765 503.288C621.31 456.988 532.715 410.185 441.756 362.396C439.373 363.583 433.263 366.443 427.548 369.519C344.077 414.382 260.839 459.379 176.885 503.991C169.521 507.903 157.697 511.549 147.861 511.615C62.9748 512.217 97.0511 511.95 12.1471 511.933C8.45637 511.933 4.76566 511.649 0 511.465V425.569C7.52473 425.368 14.942 425.017 22.3592 425.017C77.9347 424.967 14.5299 424.749 70.0875 425.151C85.0116 425.251 95.8328 423.077 106.582 417.275C177.279 379.034 248.37 340.993 320.303 303.421C328.526 299.124 342.572 296.047 354.075 295.897C413.466 295.161 472.929 295.846 532.339 295.361C549.019 295.228 560.951 297.652 572.901 304.14C642.953 342.147 713.578 379.853 784.955 417.124C793.161 421.405 807.171 424.532 818.637 424.649C881.702 425.368 825.839 425 891.018 425L891 424.983Z" fill="white"/>
</g>
</g>
<defs>
<clipPath id="clip0_35_79">
<rect width="891" height="512" fill="white"/>
</clipPath>
</defs>
</svg>
